<?xml version="1.0" standalone="no"?>
<!DOCTYPE svg PUBLIC "-//W3C//DTD SVG 20010904//EN"
 "http://www.w3.org/TR/2001/REC-SVG-20010904/DTD/svg10.dtd">
<svg version="1.0" xmlns="http://www.w3.org/2000/svg"
 width="512.000000pt" height="512.000000pt" viewBox="0 0 512.000000 512.000000"
 preserveAspectRatio="xMidYMid meet">
<metadata>
Created by potrace 1.14, written by Peter Selinger 2001-2017
</metadata>
<g transform="translate(0.000000,512.000000) scale(0.100000,-0.100000)"
fill="#000000" stroke="none">
<path d="M735 4989 c-80 -11 -134 -28 -220 -69 -206 -99 -341 -275 -401 -520
-4 -14 -8 -161 -10 -327 l-3 -303 2459 0 2458 0 -3 298 c-3 301 -4 314 -31
412 -59 207 -247 404 -454 474 -121 41 -76 40 -1945 41 -990 0 -1822 -2 -1850
-6z m295 -437 c111 -67 128 -226 33 -313 -49 -47 -90 -62 -154 -57 -96 7 -160
61 -184 156 -46 180 143 313 305 214z m781 13 c19 -10 46 -31 61 -48 66 -72
68 -186 6 -261 -119 -144 -346 -70 -363 119 0 6 3 28 8 50 27 129 172 199 288
140z"/>
<path d="M105 3347 c-7 -21 2 -2591 8 -2617 4 -14 9 -36 12 -49 38 -191 199
-389 390 -481 169 -81 -1 -74 2026 -76 1681 -1 1811 0 1892 17 280 56 504 279
565 560 18 79 19 161 19 1370 l0 1287 -2454 0 c-1848 0 -2455 -3 -2458 -11z
m2595 -647 c85 -23 199 -121 245 -210 134 -261 -59 -585 -360 -604 -284 -17
-495 261 -414 545 7 24 18 51 26 60 7 8 13 21 13 27 0 7 28 41 63 76 122 122
251 154 427 106z m-370 -1199 c51 -15 112 -24 191 -27 103 -4 127 -1 210 22
148 41 174 41 246 2 140 -75 279 -215 348 -352 31 -61 38 -86 38 -129 -2 -102
-64 -198 -155 -237 -52 -22 -53 -22 -658 -23 -602 0 -606 0 -655 22 -141 62
-197 220 -126 358 76 150 255 333 373 383 32 13 100 6 188 -19z"/>
</g>
</svg>
